<svg width="512" height="512" viewBox="0 0 512 512" fill="none" xmlns="http://www.w3.org/2000/svg">
  <defs>
    <linearGradient id="bg_gradient" x1="0" y1="0" x2="512" y2="512" gradientUnits="userSpaceOnUse">
      <stop stop-color="#165DFF"/>
      <stop offset="1" stop-color="#4080FF"/>
    </linearGradient>
    <filter id="shadow" x="0" y="0" width="512" height="512" filterUnits="userSpaceOnUse" color-interpolation-filters="sRGB">
      <feFlood flood-opacity="0" result="BackgroundImageFix"/>
      <feColorMatrix in="SourceAlpha" type="matrix" values="0 0 0 0 0 0 0 0 0 0 0 0 0 0 0 0 0 0 127 0" result="hardAlpha"/>
      <feOffset dy="4"/>
      <feGaussianBlur stdDeviation="10"/>
      <feComposite in2="hardAlpha" operator="out"/>
      <feColorMatrix type="matrix" values="0 0 0 0 0 0 0 0 0 0 0 0 0 0 0 0 0 0 0.25 0"/>
      <feBlend mode="normal" in2="BackgroundImageFix" result="effect1_dropShadow"/>
      <feBlend mode="normal" in="SourceGraphic" in2="effect1_dropShadow" result="shape"/>
    </filter>
  </defs>
  
  <rect width="512" height="512" rx="128" fill="url(#bg_gradient)"/>
  
  <g filter="url(#shadow)">
    <!-- Left Page -->
    <path d="M256 128V360C256 360 256 384 224 384H144C135.163 384 128 376.837 128 368V144C128 135.163 135.163 128 144 128H256Z" fill="white" fill-opacity="0.95"/>
    <!-- Right Page -->
    <path d="M256 128V360C256 360 256 384 288 384H368C376.837 384 384 376.837 384 368V144C384 135.163 376.837 128 368 128H256Z" fill="white" fill-opacity="0.8"/>
  </g>
</svg>
